<?xml version="1.0" encoding="utf-8" standalone="yes"?>
<!DOCTYPE svg PUBLIC "-//W3C//DTD SVG 1.1//EN" "http://www.w3.org/Graphics/SVG/1.1/DTD/svg11.dtd">
<svg xmlns="http://www.w3.org/2000/svg" xmlns:xlink="http://www.w3.org/1999/xlink" xmlns:dc="http://purl.org/dc/elements/1.1/" xmlns:cc="http://web.resource.org/cc/" xmlns:rdf="http://www.w3.org/1999/02/22-rdf-syntax-ns#" xmlns:sodipodi="http://sodipodi.sourceforge.net/DTD/sodipodi-0.dtd" xmlns:inkscape="http://www.inkscape.org/namespaces/inkscape" version="1.1" baseProfile="full" width="100px" height="100px" viewBox="0 0 100 100" preserveAspectRatio="xMidYMid meet" id="svg_document" style="zoom: 8;"><!-- Created with macSVG - https://macsvg.org/ - https://github.com/dsward2/macsvg/ --><title id="svg_document_title">Untitled.svg</title><defs id="svg_document_defs"></defs><g id="main_group"><rect stroke="#000000" id="rect1" stroke-width="2" x="2" rx="5" width="96" y="2" fill="#000" transform="" ry="5" height="96"></rect><g id="g1"><line stroke="#000000" y1="2" id="line1" stroke-width="3" x1="7" y2="2" x2="93" transform=""></line><line stroke="#000000" y1="98" id="line2" stroke-width="3" x1="7" y2="98" x2="93" transform=""></line><line stroke="#000000" y1="7" id="line3" stroke-width="3" x1="98" y2="93" x2="98" transform=""></line><line stroke="#000000" y1="7" id="line4" stroke-width="3" x1="2" y2="93" x2="2" transform=""></line><path stroke="#000000" id="path1" stroke-width="3" d="M7,2 A5,5 -1 0 0 2,7 " fill="none" transform=""></path><path stroke="#000000" stroke-width="3" id="path2" d="M98,7 A5,5 -1 0 0 93,2 " fill="none" transform=""></path><path stroke="#000000" stroke-width="3" id="path3" d="M2,93 A5,5 -1 0 0 7,98 " fill="none" transform=""></path><path stroke="#000000" stroke-width="3" id="path4" d="M93,98 A5,5 -1 0 0 98,93 " fill="none" transform=""></path></g></g></svg>